<svg xmlns="http://www.w3.org/2000/svg" viewBox="0 0 1024 1024" width="1024" height="1024">
  <!-- Outer Bezel Frame -->
  <rect width="1024" height="1024" fill="#243022" />
  
  <!-- THE LCD MATTE SCREEN (Maximized to fit the boundaries perfectly) -->
  <rect x="64" y="64" width="896" height="896" rx="24" fill="#9bbc0f" />

  <!-- D-PAD INTER-NODE RUNNERS (Recessed LCD tracks) -->
  <g stroke="#8bac0f" stroke-width="56" stroke-linecap="round" stroke-linejoin="round" opacity="0.7">
    <line x1="512" y1="212" x2="512" y2="812" />
    <line x1="212" y1="512" x2="812" y2="512" />
  </g>

  <!-- THE INTERACTIVE TILES -->
  <g fill="#8bac0f" stroke="#306230" stroke-width="14" stroke-linejoin="round">
    <rect x="422" y="422" width="180" height="180" rx="32" />
    <rect x="422" y="122" width="180" height="180" rx="32" />
    <rect x="722" y="422" width="180" height="180" rx="32" />
    <rect x="422" y="722" width="180" height="180" rx="32" />
    <rect x="122" y="422" width="180" height="180" rx="32" />
  </g>

  <!-- THE ACTIVE SWIPE PATH (Thick, dense unlit pixel chunk) -->
  <path d="M 212 512 L 512 512 L 512 212" 
        fill="none" stroke="#0f380f" stroke-width="64" stroke-linecap="round" stroke-linejoin="round" />
        
  <!-- HIGH-CONTRAST INDENTED LCD TERMINALS -->
  <g fill="#0f380f">
    <circle cx="512" cy="512" r="28" />
    
    <circle cx="212" cy="512" r="48" />
    <circle cx="212" cy="512" r="20" fill="#8bac0f" />

    <circle cx="512" cy="212" r="48" />
    <circle cx="512" cy="212" r="20" fill="#8bac0f" />
  </g>
</svg>
